<svg xmlns="http://www.w3.org/2000/svg" viewBox="0 0 220 220" role="img" aria-label="Illustrative person">
  <rect width="220" height="220" rx="22" fill="#f6f2e9"/>
  <path d="M34 174c11-36 41-58 76-58s65 22 76 58v13H34z" fill="#8a2d2a"/>
  <circle cx="110" cy="80" r="43" fill="#d6a078"/>
  <path d="M70 76c4-31 26-50 55-47 23 2 39 18 44 44-33-13-65-11-99 3z" fill="#211d17"/>
  <path d="M87 103c15 11 31 11 46 0" stroke="#211d17" stroke-width="5" fill="none" stroke-linecap="round"/>
  <path d="M56 157h78l30 30H56z" fill="#fbf8f1" stroke="#211d17" stroke-width="5"/>
  <path d="M76 171h51M142 158v28" stroke="#211d17" stroke-width="4"/>
  <circle cx="155" cy="176" r="10" fill="#2c5640"/>
</svg>
