<svg xmlns="http://www.w3.org/2000/svg" viewBox="0 0 220 220" role="img" aria-label="Illustrative person">
  <rect width="220" height="220" rx="22" fill="#f6f2e9"/>
  <path d="M34 174c10-38 41-60 76-60s66 22 76 60v13H34z" fill="#2f5d63"/>
  <circle cx="110" cy="78" r="42" fill="#d8a57c"/>
  <path d="M72 73c2-28 22-47 48-47 25 0 43 17 48 43-28-8-55-5-96 4z" fill="#211d17"/>
  <path d="M86 100c15 10 33 10 48 0" stroke="#211d17" stroke-width="5" fill="none" stroke-linecap="round"/>
  <circle cx="86" cy="82" r="7" fill="#211d17"/>
  <circle cx="134" cy="82" r="7" fill="#211d17"/>
  <path d="M62 154h96l14 33H48z" fill="#fbf8f1" stroke="#211d17" stroke-width="5"/>
  <path d="M83 171h54" stroke="#2f5d63" stroke-width="5"/>
</svg>
