<svg xmlns="http://www.w3.org/2000/svg" viewBox="0 0 292 64" width="292" height="64" role="img" aria-label="Bidframe">
  <title>Bidframe</title>
  <defs>

  </defs>
  <g>
    <circle cx="32" cy="32" r="29.5" fill="#f6f2e9"></circle>
    <path d="M21 16L27 24L16 23Z" fill="#211d17"></path>
    <path d="M43 16L37 24L48 23Z" fill="#211d17"></path>
    <path d="M32 15C21 15 16 25 16 35C16 46 23 51 32 51C41 51 48 46 48 35C48 25 43 15 32 15Z" fill="#211d17"></path>
    <circle cx="25.5" cy="31" r="6" fill="#f6f2e9"></circle>
    <circle cx="38.5" cy="31" r="6" fill="#f6f2e9"></circle>
    <circle cx="25.5" cy="31" r="2.5" fill="#211d17"></circle>
    <circle cx="38.5" cy="31" r="3" fill="#8a2d2a"></circle>
    <path d="M32 35L35 39.5H29Z" fill="#d2a435"></path>
  </g>
  <text x="78" y="44" font-family="Fraunces, Georgia, 'Times New Roman', serif" font-weight="600" font-size="40" letter-spacing="-0.8" fill="#f6f2e9">Bidframe</text>
</svg>
